<svg xmlns="http://www.w3.org/2000/svg" xmlns:xlink="http://www.w3.org/1999/xlink" width="93" height="93" viewBox="0 0 93 93">
  <defs>
    <linearGradient id="linear-gradient" x1="0.5" x2="0.5" y2="1" gradientUnits="objectBoundingBox">
      <stop offset="0" stop-color="#6a3b6c"/>
      <stop offset="1" stop-color="#be346a"/>
    </linearGradient>
  </defs>
  <g id="Group_1322" data-name="Group 1322" transform="translate(-398 -1456)">
    <g id="InProgress" transform="translate(397.896 1456.025)">
      <g id="StreamexMain" transform="translate(0.129 0)">
        <circle id="Oval" cx="46.5" cy="46.5" r="46.5" transform="translate(-0.025 -0.025)" fill="#683769"/>
      </g>
    </g>
    <g id="Group_140" data-name="Group 140" transform="translate(418.801 1483.237)">
      <path id="Path_16540" data-name="Path 16540" d="M28.166,38.265H7.187a2.137,2.137,0,0,1-1.959-1.2,2.057,2.057,0,0,1,.244-2.252L21.737,14.447A6.367,6.367,0,0,1,26.86,12H47.84A2.135,2.135,0,0,1,49.8,13.2a2.06,2.06,0,0,1-.24,2.253L33.289,35.817a6.36,6.36,0,0,1-5.123,2.447" transform="translate(4.253 1.008)" fill="#fff" fill-rule="evenodd"/>
      <path id="Path_16541" data-name="Path 16541" d="M23.166,26.265H2.187a2.134,2.134,0,0,1-1.959-1.2,2.058,2.058,0,0,1,.243-2.253L16.737,2.446A6.36,6.36,0,0,1,21.86,0H42.84A2.132,2.132,0,0,1,44.8,1.2a2.058,2.058,0,0,1-.239,2.254L28.289,23.818a6.363,6.363,0,0,1-5.123,2.447" transform="translate(0)" fill-rule="evenodd" fill="url(#linear-gradient)"/>
    </g>
  </g>
</svg>
