<svg xmlns="http://www.w3.org/2000/svg" xmlns:xlink="http://www.w3.org/1999/xlink" width="49.163" height="39.164" viewBox="0 0 49.163 39.164">
  <defs>
    <linearGradient id="linear-gradient" x1="0.154" y1="1" x2="0.878" gradientUnits="objectBoundingBox">
      <stop offset="0" stop-color="#6a3b6c"/>
      <stop offset="1" stop-color="#be346a"/>
    </linearGradient>
  </defs>
  <path id="Path_101227" data-name="Path 101227" d="M10.211,0A4.9,4.9,0,0,0,5.423,5.118a27.524,27.524,0,0,1-.861,8.573C3.726,16.4,2.311,18.117,0,18.338v2.488c2.311.22,3.726,1.937,4.563,4.647a27.524,27.524,0,0,1,.861,8.573,4.9,4.9,0,0,0,4.788,5.118H38.955a4.9,4.9,0,0,0,4.788-5.118,27.524,27.524,0,0,1,.861-8.573c.837-2.71,2.248-4.426,4.559-4.647V18.338c-2.311-.22-3.722-1.937-4.559-4.647a27.523,27.523,0,0,1-.861-8.573A4.9,4.9,0,0,0,38.955,0H10.211ZM33.331,24.108c0,3.666-2.735,5.89-7.273,5.89H18.332a.833.833,0,0,1-.833-.833V10a.833.833,0,0,1,.833-.833h7.682c3.784,0,6.268,2.05,6.268,5.2a4.654,4.654,0,0,1-3.8,4.533v.115A5.06,5.06,0,0,1,33.331,24.108Zm-8.116-12.3H20.81v6.222h3.71c2.868,0,4.45-1.155,4.45-3.219,0-1.934-1.36-3-3.755-3ZM20.81,20.5v6.857h4.567c2.986,0,4.568-1.2,4.568-3.45S28.319,20.5,25.185,20.5H20.81Z" fill-rule="evenodd" fill="url(#linear-gradient)"/>
</svg>
