<svg xmlns="http://www.w3.org/2000/svg" xmlns:xlink="http://www.w3.org/1999/xlink" width="22.503" height="39.515" viewBox="0 0 22.503 39.515">
  <defs>
    <linearGradient id="linear-gradient" x1="0.242" y1="1.011" x2="0.975" gradientUnits="objectBoundingBox">
      <stop offset="0" stop-color="#6a3b6c"/>
      <stop offset="1" stop-color="#be346a"/>
    </linearGradient>
  </defs>
  <path id="Union_4" data-name="Union 4" d="M11.154,38.269a26.852,26.852,0,0,1-6.26-.713,11.875,11.875,0,0,1-1.79-.564L4.551,39.51l.566,7.866c0,.882,2.751,1.6,6.143,1.6s6.143-.715,6.143-1.6l.448-7.951,1.369-2.439a11.751,11.751,0,0,1-1.807.571A26.852,26.852,0,0,1,11.154,38.269Zm8.114-25.6a59.923,59.923,0,0,1-8.007.473,59.924,59.924,0,0,1-8.008-.473,14.768,14.768,0,0,1-2.5-.529,3.576,3.576,0,0,1-.614-.259L1.471,24.329q.093-.321.207-.642a12.285,12.285,0,0,1,.541-1.282,11.408,11.408,0,0,1,.668-1.183A9.134,9.134,0,0,1,3.655,20.2a6.188,6.188,0,0,1,.837-.806,3.968,3.968,0,0,1,.867-.528,2.163,2.163,0,0,1,.867-.19,1.844,1.844,0,0,1,.957.275,2.769,2.769,0,0,1,.864.892.72.72,0,0,1,.117.279,1.546,1.546,0,0,1,.024.266.717.717,0,0,1-.139.465.413.413,0,0,1-.329.17.419.419,0,0,1-.323-.187,3.547,3.547,0,0,1-.334-.534,1.284,1.284,0,0,0-.383-.456.8.8,0,0,0-.454-.141,1.387,1.387,0,0,0-.812.321,4.76,4.76,0,0,0-.856.849,9.309,9.309,0,0,0-.813,1.206,12.682,12.682,0,0,0-.688,1.39,10.052,10.052,0,0,0-.475,1.4,5.072,5.072,0,0,0-.177,1.242,3.026,3.026,0,0,0,.024.377,1.29,1.29,0,0,0,.092.351.7.7,0,0,0,.185.259.434.434,0,0,0,.3.1.985.985,0,0,0,.457-.138,3.427,3.427,0,0,0,.53-.36,6.7,6.7,0,0,0,.552-.5q.277-.282.516-.57t.424-.554a3.289,3.289,0,0,0,.277-.462l.505-1.541a.724.724,0,0,1,.242-.354.529.529,0,0,1,.307-.1.468.468,0,0,1,.152.026.381.381,0,0,1,.136.082.393.393,0,0,1,.1.144.554.554,0,0,1,.035.206,3.049,3.049,0,0,1-.054.59,4.758,4.758,0,0,1-.139.538q-.084.262-.188.528t-.2.554a1.272,1.272,0,0,0-.079.206q-.057.174-.139.436t-.177.587q-.1.325-.2.662t-.193.662q-.093.324-.166.587l-.122.439c-.033.118-.053.188-.06.21a1.382,1.382,0,0,1-.087.232,1.543,1.543,0,0,1-.141.243.877.877,0,0,1-.179.19.327.327,0,0,1-.2.075.282.282,0,0,1-.253-.118.837.837,0,0,1-.079-.433v-.092a.948.948,0,0,1,.005-.1,2.363,2.363,0,0,1,.082-.394q.076-.288.182-.652t.228-.754q.122-.39.22-.7-.288.328-.625.652a6.771,6.771,0,0,1-.69.583,4.076,4.076,0,0,1-.712.423,1.66,1.66,0,0,1-.69.164,1.217,1.217,0,0,1-.655-.171c-.033-.021-.064-.044-.1-.067l.739,7.888c.192.491,3.813,1.7,8.586,1.7s8.4-1.207,8.587-1.7L20.8,26.667l-.255.24a11.181,11.181,0,0,1-.862.744,3.873,3.873,0,0,1-.791.482,2.02,2.02,0,0,1-.826.171.987.987,0,0,1-.639-.184.615.615,0,0,1-.226-.5v-.049a.339.339,0,0,1,.006-.056,1.205,1.205,0,0,1,.169-.452,5.206,5.206,0,0,1,.353-.531q.207-.275.44-.557t.432-.534a5.16,5.16,0,0,0,.329-.462.7.7,0,0,0,.131-.341.156.156,0,0,0-.054-.125.281.281,0,0,0-.179-.046,1,1,0,0,0-.448.115,2.224,2.224,0,0,0-.457.308,4.174,4.174,0,0,0-.44.443,6.512,6.512,0,0,0-.4.518q-.188.269-.342.541t-.264.5l-.092.2q-.06.131-.13.3t-.15.337q-.079.174-.144.328l-.117.275q-.052.121-.074.167t-.09.223q-.062.164-.144.384l-.171.462q-.089.242-.168.459l-.139.38c-.04.109-.065.183-.076.223a2.418,2.418,0,0,1-.128.321,1.326,1.326,0,0,1-.169.266.774.774,0,0,1-.217.183.548.548,0,0,1-.274.069.529.529,0,0,1-.324-.1A.431.431,0,0,1,13.742,31a1.163,1.163,0,0,1,.033-.269,2.428,2.428,0,0,1,.082-.272c.033-.09.066-.177.1-.262s.066-.167.095-.246q.294-.656.6-1.314t.584-1.3c.039-.09.074-.178.112-.267l-.034.034a7.251,7.251,0,0,1-.7.613,3.72,3.72,0,0,1-.7.423,1.617,1.617,0,0,1-.671.157.853.853,0,0,1-.372-.072.623.623,0,0,1-.239-.2.793.793,0,0,1-.128-.3c-.009-.039-.014-.079-.019-.12-.064.05-.128.1-.192.146a3.885,3.885,0,0,1-.663.39,1.445,1.445,0,0,1-.587.148.55.55,0,0,1-.424-.177.885.885,0,0,1-.163-.6,3.363,3.363,0,0,1,.087-.7,3.587,3.587,0,0,1-.353.518,3.124,3.124,0,0,1-.484.479,2.4,2.4,0,0,1-.609.351,1.964,1.964,0,0,1-.734.134,1.29,1.29,0,0,1-.345-.046.719.719,0,0,1-.291-.157.79.79,0,0,1-.2-.3,1.251,1.251,0,0,1-.076-.469s.007-.071.022-.2a4.34,4.34,0,0,1,.139-.61q.117-.416.361-1.078t.69-1.606a.884.884,0,0,1,.263-.357.541.541,0,0,1,.323-.108.586.586,0,0,1,.158.023.505.505,0,0,1,.152.072.387.387,0,0,1,.114.125.343.343,0,0,1,.043.174.463.463,0,0,1-.016.124,1.51,1.51,0,0,1-.117.292q-.09.181-.21.413t-.253.5q-.133.269-.247.557a5.634,5.634,0,0,0-.2.587,2.571,2.571,0,0,0-.092.58.438.438,0,0,0,.054.216.189.189,0,0,0,.179.1,1.122,1.122,0,0,0,.674-.236,3.02,3.02,0,0,0,.592-.587,5.642,5.642,0,0,0,.492-.754q.22-.4.367-.737a3.781,3.781,0,0,0,.182-.479,4.817,4.817,0,0,1,.171-.472,1.46,1.46,0,0,1,.212-.361.373.373,0,0,1,.3-.144.368.368,0,0,1,.31.151.581.581,0,0,1,.114.361,1.043,1.043,0,0,1-.073.325q-.074.206-.185.472t-.242.567q-.13.3-.242.613a6.157,6.157,0,0,0-.185.61,2.323,2.323,0,0,0-.073.554.21.21,0,0,0,.239.236,1.028,1.028,0,0,0,.419-.118,2.853,2.853,0,0,0,.524-.331c.046-.035.092-.072.137-.111a4.614,4.614,0,0,1,.181-.593q.19-.512.386-1.016l.359-.925,1.647-4.229a.707.707,0,0,1,.263-.361.622.622,0,0,1,.334-.1.478.478,0,0,1,.307.111.436.436,0,0,1,.139.361.75.75,0,0,1-.046.249,3.047,3.047,0,0,1-.117.282q-.136.308-.323.754t-.4.97q-.215.525-.44,1.092t-.44,1.1q-.214.538-.4,1.019t-.323.836q-.06.151-.117.351a1.313,1.313,0,0,0-.057.357.325.325,0,0,0,.033.157.13.13,0,0,0,.125.059.694.694,0,0,0,.285-.082,2.9,2.9,0,0,0,.369-.216q.2-.134.413-.308t.427-.361q.212-.187.4-.374t.345-.344a.244.244,0,0,1,.084-.056c.061-.186.117-.368.166-.547q.043-.118.12-.334t.174-.426a1.832,1.832,0,0,1,.22-.364.342.342,0,0,1,.264-.154.423.423,0,0,1,.315.1.415.415,0,0,1,.1.3,1.1,1.1,0,0,1-.011.124c-.007.057-.016.117-.027.18s-.023.123-.035.18a.837.837,0,0,1-.035.124q.2-.223.435-.442a4.488,4.488,0,0,1,.484-.4,2.78,2.78,0,0,1,.511-.289,1.322,1.322,0,0,1,.522-.111,1.242,1.242,0,0,1,.356.053,1.016,1.016,0,0,1,.315.154.8.8,0,0,1,.226.256.714.714,0,0,1,.087.357,1.436,1.436,0,0,1-.133.574,4.178,4.178,0,0,1-.334.613q-.2.308-.435.6t-.438.531q-.2.24-.343.406a.614.614,0,0,0-.144.226.174.174,0,0,0,.049.128.224.224,0,0,0,.163.049.62.62,0,0,0,.272-.1,4.632,4.632,0,0,0,.5-.364q.323-.259.821-.7c.227-.2.494-.437.793-.707l1.437-13.557a3.564,3.564,0,0,1-.614.26A14.762,14.762,0,0,1,19.268,12.674ZM11.252,9.457C5.038,9.457,0,10.165,0,11.038s5.038,1.581,11.252,1.581S22.5,11.911,22.5,11.038,17.466,9.457,11.252,9.457ZM15.744,11.5c0,.2-.6.371-1.337.371S13.07,11.7,13.07,11.5s.6-.371,1.337-.371S15.744,11.295,15.744,11.5Z" transform="translate(0 -9.457)" fill-rule="evenodd" fill="url(#linear-gradient)"/>
</svg>
