<svg xmlns="http://www.w3.org/2000/svg" xmlns:xlink="http://www.w3.org/1999/xlink" width="428" height="429" viewBox="0 0 428 429">
  <defs>
    <linearGradient id="linear-gradient" x1="0.5" x2="0.5" y2="1" gradientUnits="objectBoundingBox">
      <stop offset="0" stop-color="#db506c"/>
      <stop offset="1" stop-color="#ea8d9f"/>
    </linearGradient>
    <linearGradient id="linear-gradient-2" x1="0.5" x2="0.5" y2="1" gradientUnits="objectBoundingBox">
      <stop offset="0" stop-color="#6a3b6c"/>
      <stop offset="1" stop-color="#be346a"/>
    </linearGradient>
    <linearGradient id="linear-gradient-3" x1="0.5" x2="0.5" y2="1" gradientUnits="objectBoundingBox">
      <stop offset="0" stop-color="#f66675"/>
      <stop offset="1" stop-color="#fcc48d"/>
    </linearGradient>
    <linearGradient id="linear-gradient-8" x1="0.774" y1="0.963" x2="0.033" y2="0.228" xlink:href="#linear-gradient"/>
    <linearGradient id="linear-gradient-9" x1="0.297" y1="0.847" x2="0.749" y2="0.07" xlink:href="#linear-gradient-3"/>
    <linearGradient id="linear-gradient-10" x1="0.5" y1="0.996" x2="0.5" y2="0.004" gradientUnits="objectBoundingBox">
      <stop offset="0" stop-color="#4c3d69"/>
      <stop offset="1" stop-color="#c73e67"/>
    </linearGradient>
  </defs>
  <g id="Group_1366" data-name="Group 1366" transform="translate(-1287.218 -301.394)">
    <g id="Group_1359" data-name="Group 1359" transform="translate(1337.586 301)">
      <ellipse id="Ellipse_736" data-name="Ellipse 736" cx="62" cy="61.5" rx="62" ry="61.5" transform="translate(-0.368 0.394)" fill="url(#linear-gradient)"/>
      <g id="Group_1356" data-name="Group 1356" transform="translate(31.846 30.89)">
        <path id="Exclusion_2" data-name="Exclusion 2" d="M29.264,66.449h0L5.331,59.8,0,0H58.558L53.221,59.808,29.265,66.449ZM13.191,37.812l1.052,11.776,15.024,4.173,15.044-4.173,2.017-22.519H19.595l-.672-7.511H46.994l.656-7.336H10.909L12.886,34.4H38.309l-.853,9.515-8.185,2.213-8.17-2.21-.548-6.109Z" transform="translate(0 0)" fill="#fff"/>
      </g>
    </g>
    <g id="Group_1361" data-name="Group 1361" transform="translate(1323.469 576.283)">
      <ellipse id="Ellipse_738" data-name="Ellipse 738" cx="25" cy="24.5" rx="25" ry="24.5" transform="translate(-0.251 0.111)" fill="url(#linear-gradient-2)"/>
      <g id="Group_1358" data-name="Group 1358" transform="translate(15.13 16.192)">
        <path id="Exclusion_2-2" data-name="Exclusion 2" d="M9.57,21.731h0L1.743,19.558,0,0H19.15L17.4,19.559,9.57,21.731ZM4.314,12.366l.344,3.851,4.913,1.365,4.92-1.365.66-7.364H6.408L6.188,6.4h9.18L15.583,4H3.568l.646,7.254h8.314l-.279,3.112-2.677.724L6.9,14.363l-.179-2Z" transform="translate(0 0)" fill="#fff"/>
      </g>
    </g>
    <g id="Group_1365" data-name="Group 1365" transform="translate(1564.636 302.176)">
      <circle id="Ellipse_737" data-name="Ellipse 737" cx="60" cy="60" r="60" transform="translate(-0.418 0.218)" fill="url(#linear-gradient-3)"/>
      <g id="Group_1357" data-name="Group 1357" transform="translate(29.59 25.789)">
        <path id="Exclusion_1" data-name="Exclusion 1" d="M30.406,68.418h0L5.7,61.766,0,0H60.815l-5.7,61.766L30.407,68.418ZM13.819,39.209l1.005,11.65,15.59,4.608,15.5-4.525,2.01-23.129H30.341l.045-.019,18.186-7.775.754-7.46H11.111l.921,7.46H31.416l-1.031.429L12.7,27.811l.585,7.291.027-.011,0,.013,26.231.082-.587,9.722-8.631,2.43-8.3-2.095-.5-6.035h-7.71Z" transform="translate(0 0)" fill="#fff"/>
      </g>
    </g>
    <g id="Group_1362" data-name="Group 1362" transform="translate(1376.408 629.222)">
      <circle id="Ellipse_735" data-name="Ellipse 735" cx="50.5" cy="50.5" r="50.5" transform="translate(-0.19 0.172)" fill="url(#linear-gradient-3)"/>
      <path id="Path_101241" data-name="Path 101241" d="M13.135,0A6.3,6.3,0,0,0,6.976,6.583,35.4,35.4,0,0,1,5.869,17.611C4.793,21.1,2.973,23.3,0,23.588v3.2c2.973.284,4.793,2.491,5.869,5.977A35.4,35.4,0,0,1,6.976,43.793a6.3,6.3,0,0,0,6.159,6.583H50.108a6.3,6.3,0,0,0,6.158-6.583,35.4,35.4,0,0,1,1.107-11.028c1.077-3.486,2.892-5.694,5.865-5.977v-3.2c-2.973-.284-4.788-2.491-5.865-5.977A35.4,35.4,0,0,1,56.266,6.583,6.3,6.3,0,0,0,50.108,0H13.135ZM42.873,31.01c0,4.716-3.518,7.576-9.356,7.576H23.58a1.072,1.072,0,0,1-1.072-1.072V12.862A1.072,1.072,0,0,1,23.58,11.79h9.881c4.868,0,8.062,2.637,8.062,6.685a5.986,5.986,0,0,1-4.887,5.831v.148C40.364,24.863,42.873,27.444,42.873,31.01ZM32.434,15.188H26.768v8H31.54c3.689,0,5.724-1.486,5.724-4.141,0-2.488-1.749-3.862-4.83-3.862ZM26.768,26.367v8.82h5.875c3.841,0,5.876-1.541,5.876-4.438s-2.092-4.383-6.123-4.383H26.768Z" transform="translate(18.967 25.398)" fill="#fff" fill-rule="evenodd"/>
    </g>
    <g id="Group_1364" data-name="Group 1364" transform="translate(1611.693 482.169)">
      <ellipse id="Ellipse_734" data-name="Ellipse 734" cx="52" cy="51.5" rx="52" ry="51.5" transform="translate(-0.475 0.225)" fill="url(#linear-gradient-2)"/>
      <path id="Union_5" data-name="Union 5" d="M15.878,40.965a38.267,38.267,0,0,1-8.911-1.014,16.919,16.919,0,0,1-2.548-.8l2.06,3.579.806,11.184c0,1.254,3.915,2.27,8.745,2.27s8.745-1.016,8.745-2.27l.638-11.305,1.949-3.468a16.741,16.741,0,0,1-2.572.812A38.266,38.266,0,0,1,15.878,40.965ZM27.427,4.573a85.4,85.4,0,0,1-11.4.672,85.4,85.4,0,0,1-11.4-.672,21.043,21.043,0,0,1-3.553-.752A5.094,5.094,0,0,1,.2,3.453l1.89,17.692q.132-.457.294-.912a17.456,17.456,0,0,1,.77-1.822,16.214,16.214,0,0,1,.952-1.682A12.989,12.989,0,0,1,5.2,15.269a8.8,8.8,0,0,1,1.191-1.146,5.65,5.65,0,0,1,1.234-.75,3.083,3.083,0,0,1,1.234-.27,2.628,2.628,0,0,1,1.362.392,3.939,3.939,0,0,1,1.23,1.268,1.022,1.022,0,0,1,.166.4,2.2,2.2,0,0,1,.035.378,1.019,1.019,0,0,1-.2.662.588.588,0,0,1-.468.242.6.6,0,0,1-.46-.266,5.042,5.042,0,0,1-.476-.76,1.827,1.827,0,0,0-.545-.648,1.135,1.135,0,0,0-.646-.2,1.976,1.976,0,0,0-1.157.457,6.773,6.773,0,0,0-1.218,1.207,13.234,13.234,0,0,0-1.157,1.715,18.022,18.022,0,0,0-.979,1.976,14.28,14.28,0,0,0-.677,1.995,7.2,7.2,0,0,0-.251,1.766,4.3,4.3,0,0,0,.035.536,1.832,1.832,0,0,0,.132.5,1,1,0,0,0,.263.368.619.619,0,0,0,.422.145,1.4,1.4,0,0,0,.65-.2,4.879,4.879,0,0,0,.754-.512,9.533,9.533,0,0,0,.785-.718q.395-.4.735-.811t.6-.787a4.675,4.675,0,0,0,.395-.657l.719-2.191a1.029,1.029,0,0,1,.344-.5A.753.753,0,0,1,9.7,18.7a.666.666,0,0,1,.217.037.542.542,0,0,1,.193.116.558.558,0,0,1,.135.205.787.787,0,0,1,.05.293,4.33,4.33,0,0,1-.077.839,6.758,6.758,0,0,1-.2.764q-.12.373-.267.75t-.286.788a1.807,1.807,0,0,0-.112.293q-.081.247-.2.62t-.251.834q-.136.462-.278.941t-.275.942q-.132.461-.236.834t-.174.624c-.046.168-.075.267-.085.3a1.963,1.963,0,0,1-.124.331,2.194,2.194,0,0,1-.2.345,1.248,1.248,0,0,1-.255.27.465.465,0,0,1-.286.107.4.4,0,0,1-.36-.168,1.188,1.188,0,0,1-.112-.615v-.131a1.347,1.347,0,0,1,.008-.14,3.357,3.357,0,0,1,.116-.56q.108-.41.259-.927t.325-1.072q.174-.555.313-.993-.411.466-.89.928a9.635,9.635,0,0,1-.983.829,5.8,5.8,0,0,1-1.013.6,2.365,2.365,0,0,1-.983.233,1.734,1.734,0,0,1-.932-.243c-.047-.029-.091-.062-.135-.095L3.655,37.8c.274.7,5.427,2.413,12.222,2.413S27.832,38.5,28.1,37.8l1.511-13.334c-.125.117-.247.231-.363.341a15.911,15.911,0,0,1-1.226,1.058,5.514,5.514,0,0,1-1.126.685,2.878,2.878,0,0,1-1.176.243,1.406,1.406,0,0,1-.909-.261.874.874,0,0,1-.321-.718v-.07a.481.481,0,0,1,.008-.079,1.712,1.712,0,0,1,.24-.643,7.4,7.4,0,0,1,.5-.755q.294-.392.627-.793t.615-.76a7.336,7.336,0,0,0,.468-.657,1,1,0,0,0,.186-.485.221.221,0,0,0-.077-.177.4.4,0,0,0-.255-.065,1.432,1.432,0,0,0-.638.163,3.166,3.166,0,0,0-.65.438,5.938,5.938,0,0,0-.627.629,9.26,9.26,0,0,0-.572.736q-.267.383-.487.769t-.375.713l-.132.289q-.085.187-.186.42t-.213.48q-.112.247-.2.466l-.166.391q-.074.172-.1.238-.039.084-.128.317t-.2.545l-.244.657q-.127.344-.24.652l-.2.541c-.057.155-.093.261-.109.317a3.436,3.436,0,0,1-.182.457,1.885,1.885,0,0,1-.24.378,1.1,1.1,0,0,1-.309.261.781.781,0,0,1-.39.1.753.753,0,0,1-.461-.135.613.613,0,0,1-.182-.517,1.652,1.652,0,0,1,.046-.382,3.449,3.449,0,0,1,.116-.387c.046-.128.094-.252.143-.373s.094-.238.135-.35q.418-.932.851-1.869t.832-1.855c.055-.128.106-.253.16-.38l-.048.049a10.318,10.318,0,0,1-1,.872,5.3,5.3,0,0,1-.99.6,2.3,2.3,0,0,1-.956.224,1.216,1.216,0,0,1-.53-.1.887.887,0,0,1-.34-.28,1.127,1.127,0,0,1-.182-.419c-.012-.055-.02-.113-.028-.17-.091.072-.182.142-.274.208a5.531,5.531,0,0,1-.944.554,2.06,2.06,0,0,1-.835.21.784.784,0,0,1-.6-.252,1.257,1.257,0,0,1-.232-.857,4.777,4.777,0,0,1,.124-1,5.1,5.1,0,0,1-.5.736,4.444,4.444,0,0,1-.689.681,3.425,3.425,0,0,1-.867.5,2.8,2.8,0,0,1-1.044.191,1.838,1.838,0,0,1-.491-.065A1.024,1.024,0,0,1,11,26.5a1.124,1.124,0,0,1-.286-.424,1.777,1.777,0,0,1-.108-.667q0-.009.031-.284a6.165,6.165,0,0,1,.2-.867q.166-.592.514-1.533t.983-2.283a1.257,1.257,0,0,1,.375-.508.77.77,0,0,1,.46-.154.835.835,0,0,1,.224.033.72.72,0,0,1,.217.1.551.551,0,0,1,.163.177.488.488,0,0,1,.062.247.658.658,0,0,1-.023.177,2.146,2.146,0,0,1-.166.415q-.128.257-.3.587t-.36.713q-.19.382-.352.792a8,8,0,0,0-.279.834,3.651,3.651,0,0,0-.131.825.623.623,0,0,0,.077.307.269.269,0,0,0,.255.14,1.6,1.6,0,0,0,.959-.335,4.3,4.3,0,0,0,.843-.834,8.021,8.021,0,0,0,.7-1.072q.313-.573.522-1.049a5.371,5.371,0,0,0,.259-.68,6.843,6.843,0,0,1,.244-.671,2.075,2.075,0,0,1,.3-.513.531.531,0,0,1,.425-.205.525.525,0,0,1,.441.214.825.825,0,0,1,.162.513,1.481,1.481,0,0,1-.1.462q-.1.294-.263.671t-.344.806q-.186.429-.344.872a8.747,8.747,0,0,0-.263.867,3.3,3.3,0,0,0-.1.787.3.3,0,0,0,.34.336,1.465,1.465,0,0,0,.6-.168,4.061,4.061,0,0,0,.747-.471c.065-.05.131-.1.2-.158a6.554,6.554,0,0,1,.257-.843q.271-.728.549-1.445t.511-1.314l2.344-6.012a1,1,0,0,1,.375-.513.886.886,0,0,1,.476-.149.682.682,0,0,1,.437.158.619.619,0,0,1,.2.513,1.065,1.065,0,0,1-.066.354,4.328,4.328,0,0,1-.166.4q-.193.439-.46,1.072t-.573,1.38q-.306.746-.627,1.552t-.627,1.571q-.305.765-.573,1.449t-.46,1.188q-.085.214-.166.5a1.865,1.865,0,0,0-.081.508.462.462,0,0,0,.046.223.185.185,0,0,0,.178.084.988.988,0,0,0,.406-.117,4.131,4.131,0,0,0,.526-.308q.283-.191.588-.438t.607-.513q.3-.266.576-.531t.492-.489a.347.347,0,0,1,.119-.08c.087-.265.167-.524.237-.777q.062-.168.17-.475t.247-.606a2.6,2.6,0,0,1,.313-.517A.488.488,0,0,1,24.1,20.1a.6.6,0,0,1,.449.144.589.589,0,0,1,.139.424,1.567,1.567,0,0,1-.015.177c-.01.081-.023.167-.038.257s-.032.175-.05.256a1.189,1.189,0,0,1-.05.177q.286-.317.619-.629a6.387,6.387,0,0,1,.689-.564,3.958,3.958,0,0,1,.728-.41,1.884,1.884,0,0,1,.742-.158,1.769,1.769,0,0,1,.507.075,1.447,1.447,0,0,1,.449.219,1.138,1.138,0,0,1,.321.364,1.014,1.014,0,0,1,.124.508,2.039,2.039,0,0,1-.189.816,5.938,5.938,0,0,1-.476.871q-.286.438-.619.853t-.623.755q-.29.341-.488.578a.873.873,0,0,0-.2.322.247.247,0,0,0,.07.182.32.32,0,0,0,.232.07.883.883,0,0,0,.387-.149,6.592,6.592,0,0,0,.716-.517q.46-.368,1.168-.988c.324-.283.7-.621,1.129-1L31.855,3.452a5.077,5.077,0,0,1-.874.369A21.035,21.035,0,0,1,27.427,4.573ZM16.017,0C7.171,0,0,1.006,0,2.247S7.171,4.495,16.017,4.495,32.033,3.488,32.033,2.247,24.862,0,16.017,0Zm6.4,2.9c0,.291-.852.527-1.9.527S18.6,3.2,18.6,2.9s.852-.528,1.9-.528S22.412,2.613,22.412,2.9Z" transform="translate(35.746 23.671)" fill="#fff" fill-rule="evenodd"/>
    </g>
    <g id="Group_1360" data-name="Group 1360" transform="translate(1287 468.052)">
      <circle id="Ellipse_732" data-name="Ellipse 732" cx="36.5" cy="36.5" r="36.5" transform="translate(0.218 0.342)" fill="url(#linear-gradient-3)"/>
      <path id="sass-1" d="M38.7,19.65a9.29,9.29,0,0,0-4.087.951,8.407,8.407,0,0,1-.916-2.114,5.847,5.847,0,0,1-.079-1.779,14.257,14.257,0,0,1,.537-1.92c-.009-.079-.1-.467-1-.476s-1.691.176-1.779.414A10.115,10.115,0,0,0,31,16.074a32.058,32.058,0,0,1-2.757,5.3,5.41,5.41,0,0,1-.625-1.55,5.846,5.846,0,0,1-.079-1.779,14.264,14.264,0,0,1,.537-1.92c-.009-.079-.1-.467-1-.476s-1.691.176-1.779.414-.185.8-.379,1.348-2.387,5.443-2.96,6.721c-.291.652-.546,1.171-.731,1.524s-.009.026-.026.062l-.247.467v.009c-.123.22-.255.432-.317.432a2.937,2.937,0,0,1,.018-1.4c.326-1.7,1.119-4.351,1.11-4.448,0-.044.15-.511-.511-.749a.8.8,0,0,0-.925.159c-.053,0-.1.141-.1.141s.713-2.986-1.365-2.986c-1.3,0-3.1,1.418-3.99,2.713-.564.308-1.762.96-3.03,1.656-.484.264-.987.546-1.462.8l-.1-.106C7.76,19.72,3.1,17.818,3.294,14.207c.07-1.312.528-4.774,8.949-8.967,6.9-3.435,12.419-2.493,13.379-.4,1.365,2.995-2.951,8.561-10.12,9.363-2.73.308-4.166-.749-4.527-1.145-.379-.414-.432-.432-.573-.352-.229.123-.088.493,0,.713a4.252,4.252,0,0,0,2.59,2.035,13.725,13.725,0,0,0,8.394-.828c4.342-1.682,7.733-6.351,6.738-10.253C27.111.4,20.523-.9,14.3,1.312A31.349,31.349,0,0,0,3.682,7.4C.247,10.6-.3,13.405-.07,14.568c.8,4.149,6.518,6.853,8.808,8.852-.115.062-.22.123-.317.176-1.145.564-5.505,2.845-6.6,5.258-1.233,2.73.194,4.695,1.145,4.959a7.039,7.039,0,0,0,7.584-3.074,7.606,7.606,0,0,0,.678-7l-.027-.053.9-.528c.581-.344,1.154-.661,1.656-.934a10.967,10.967,0,0,0-.59,2.995,6.245,6.245,0,0,0,1.348,4.351,1.491,1.491,0,0,0,1.083.352c.969,0,1.409-.8,1.894-1.762.6-1.171,1.127-2.528,1.127-2.528S17.96,29.3,19.765,29.3c.661,0,1.321-.854,1.621-1.295v.009s.018-.026.053-.088.072-.11.106-.167v-.018c.264-.458.854-1.506,1.735-3.241,1.136-2.237,2.228-5.038,2.228-5.038a16.077,16.077,0,0,0,.432,1.814,17.363,17.363,0,0,0,.942,2.114c-.264.37-.423.581-.423.581l.009.009c-.211.282-.449.581-.7.881a25.6,25.6,0,0,0-2.114,2.651.726.726,0,0,0,.194.969,1.763,1.763,0,0,0,1.11.176,4.944,4.944,0,0,0,1.656-.379,5.735,5.735,0,0,0,1.427-.749,3.177,3.177,0,0,0,1.365-2.81,5.649,5.649,0,0,0-.52-1.982c.079-.115.159-.229.238-.352a37.18,37.18,0,0,0,2.466-4.272,16.078,16.078,0,0,0,.432,1.814,12.72,12.72,0,0,0,.8,1.815,7.831,7.831,0,0,0-2.4,3.109c-.52,1.5-.115,2.176.652,2.334a2.345,2.345,0,0,0,1.207-.247,5.468,5.468,0,0,0,1.524-.784,3.446,3.446,0,0,0,1.682-2.783,5.336,5.336,0,0,0-.379-1.647,8.581,8.581,0,0,1,4.369-.5c3.92.458,4.695,2.907,4.545,3.928a2.631,2.631,0,0,1-1.242,1.762c-.273.167-.361.229-.335.352.035.185.159.176.4.141a3.049,3.049,0,0,0,2.132-2.722c.106-2.423-2.193-5.065-6.271-5.039ZM8.474,29.841c-1.295,1.418-3.118,1.955-3.893,1.5-.837-.484-.511-2.572,1.083-4.078A20.725,20.725,0,0,1,8.72,24.979c.185-.115.467-.282.8-.484a.939.939,0,0,1,.088-.053c.062-.035.132-.079.2-.123a5.618,5.618,0,0,1-1.339,5.523ZM17.942,23.4c-.449,1.1-1.4,3.928-1.973,3.77-.493-.132-.793-2.272-.1-4.386a9.792,9.792,0,0,1,1.541-2.827c.714-.793,1.489-1.057,1.682-.731C19.325,19.65,18.224,22.715,17.942,23.4Zm7.813,3.735c-.194.1-.37.167-.449.115-.062-.035.079-.167.079-.167s.978-1.048,1.365-1.533c.22-.282.484-.608.766-.978v.106a3.253,3.253,0,0,1-1.762,2.457Zm6.025-1.374c-.141-.106-.123-.432.352-1.453a5.446,5.446,0,0,1,1.339-1.726,2.179,2.179,0,0,1,.132.757A2.478,2.478,0,0,1,31.78,25.763Z" transform="translate(15.997 18.309)" fill="#fff"/>
    </g>
    <g id="Group_1363" data-name="Group 1363" transform="translate(1519.932 592.753)">
      <circle id="Ellipse_733" data-name="Ellipse 733" cx="36.5" cy="36.5" r="36.5" transform="translate(0.286 -0.359)" fill="url(#linear-gradient)"/>
      <path id="visual-studio-code" d="M11.1,19.181,3.372,25.206,0,23.527V7.824L3.359,6.132l7.678,6.038L23.193,0l8,3.186V28.1l-7.958,3.239ZM22.953,21.3V10.037l-7.278,5.638L22.953,21.3ZM3.639,19.274,7.465,15.8,3.639,11.983Z" transform="translate(19.697 20.8)" fill="#fff"/>
    </g>
    <g id="Page-1" transform="translate(1410.524 422.206)">
      <g id="Brring-_-Homepage" data-name="Brring-—-Homepage" transform="translate(0 0)">
        <g id="Group" transform="translate(0)">
          <g id="Brring_logo_col">
            <path id="Shape" d="M67.762,70.823a69.116,69.116,0,0,0,56.669,19.7A57.58,57.58,0,1,1,47.99,14.358,68.572,68.572,0,0,0,67.762,70.823Z" transform="translate(-14.41 46.564)" fill="url(#linear-gradient-8)"/>
            <path id="Shape-2" data-name="Shape" d="M117.666,117.43a68.866,68.866,0,0,1-41.086,19.7A57.181,57.181,0,0,0,65.1,72.293,57.694,57.694,0,0,0,.005,60.965a69.052,69.052,0,1,1,117.66,56.465Z" transform="translate(33.575 -0.043)" fill="url(#linear-gradient-9)"/>
            <path id="Shape-3" data-name="Shape" d="M78.524,29.907A57.247,57.247,0,0,1,90.052,94.587,69.15,69.15,0,0,1,33.368,74.9a68.605,68.605,0,0,1-19.757-56.48A57.761,57.761,0,0,1,78.524,29.907Z" transform="translate(19.969 42.501)" fill="url(#linear-gradient-10)"/>
          </g>
        </g>
      </g>
    </g>
  </g>
</svg>
