<svg xmlns="http://www.w3.org/2000/svg" width="478.988" height="282.241" viewBox="0 0 478.988 282.241">
  <g id="_12" data-name="12" transform="translate(0 0)">
    <path id="Fill_507" data-name="Fill 507" d="M15.288,256.242a2.13,2.13,0,0,1-1.587-.5,3.1,3.1,0,0,1-.479-2.248,6.21,6.21,0,0,0-.083-1.474c-.5-2.143-2.252-2.773-3.943-3.382a9.779,9.779,0,0,1-2.138-.961C-1.322,242.043-.311,233.7.581,226.34,2.048,214.3,7.18,203.114,12.143,192.3l.365-.8a253.087,253.087,0,0,1,29.835-49.3,270.3,270.3,0,0,1,39.988-41.415c26.374-22.139,56.83-40.184,93.109-55.168,10.03-4.145,20.521-7.526,30.665-10.8,4.111-1.325,8.356-2.694,12.512-4.094,11.275-3.8,23.31-7.757,35.576-10.769,22.522-5.53,41.388-9.368,59.371-12.077C339.45,3.987,370.114,0,401.278,0c4.209,0,8.413.073,12.493.217a192.706,192.706,0,0,1,51.96,9.167,26.392,26.392,0,0,1,8.137,3.994c.3.231.637.462.958.684,1.63,1.128,3.316,2.294,2.845,4.453-.6,2.737-2.764,4.266-6.1,4.307l.362.155c3.3,1.415,6.411,2.752,6.967,5.079.351,1.468-.342,3.216-2.119,5.344-.607.727-.305,1.254.044,1.865.1.176.2.358.292.554.979,2.2,1.132,4.039.455,5.481-.715,1.523-2.389,2.662-4.975,3.387a2.865,2.865,0,0,0,1.429.644c.991.254,1.926.493,1.557,1.97-.3,1.211-1.382,1.366-2.293,1.366-.329,0-.653-.023-.967-.044l-.153-.011c-12.513-.843-25.251-.927-37.57-1.008l-3.87-.026c-1.972-.015-3.964-.023-5.92-.023a657.461,657.461,0,0,0-68.441,3.395c-21.429,2.222-43.593,5.475-67.758,9.943a195.88,195.88,0,0,0-26.114,7.13A703.294,703.294,0,0,1,422.011,49.511c16.37,0,33,.59,49.423,1.754a4.877,4.877,0,0,1-3.951,1.651c-.586,0-1.18-.054-1.755-.107-.526-.048-1.022-.094-1.514-.1-7.46-.126-14.821-.189-21.877-.189-57.725,0-105.661,4.125-150.857,12.983-14.682,2.878-29.337,6.776-43.51,10.545-2.172.578-4.321,1.149-6.471,1.718a18.5,18.5,0,0,1-4.83.726c-.26,0-.52-.008-.775-.023-2.972,2.527-6.653,3.477-10.212,4.4-1.4.36-2.839.733-4.211,1.195a334.9,334.9,0,0,0-46.178,18.993c-3.681,1.877-7.318,3.561-11.329,3.562a14.651,14.651,0,0,1-3.28-.376,9.038,9.038,0,0,0-1.935-.283c-.64,0-1.041.157-1.191.466-.229.473.123,1.306,1.047,2.477a1.449,1.449,0,0,1,.433,1.164c-.107.454-.637.705-1.15.948-.188.089-.365.173-.522.266-2.324,1.38-4.662,2.837-6.923,4.247a148.032,148.032,0,0,1-17.838,10.008,19.89,19.89,0,0,0-5.151,3.623,22.44,22.44,0,0,1-3.508,2.712c-5.711,3.334-10.72,7.7-15.565,11.919-2.937,2.559-5.973,5.2-9.133,7.591a72.752,72.752,0,0,0-9.531,9.252c-1.36,1.488-2.766,3.026-4.215,4.5-.685-.755-.3-1.428.037-2.021.3-.528.585-1.026.026-1.473a2.128,2.128,0,0,0-1.343-.454,1.9,1.9,0,0,0-1.72.876,13.86,13.86,0,0,1-2.237,3.068c-1.673,1.905-3.4,3.875-2.578,7.035a2.8,2.8,0,0,1-.482,2.468,2.559,2.559,0,0,1-1.939,1.042,1.727,1.727,0,0,1-.2-.012c-.323-.038-.633-.084-.924-.128a9.251,9.251,0,0,0-1.263-.138c-.4,0-.651.091-.778.287-.233.359-.087,1.08.473,2.338a1.279,1.279,0,0,1-.017.745,3.584,3.584,0,0,0-.06.354,10.048,10.048,0,0,0-1.358-.1c-3.6,0-3.91,2.556-4.212,5.028-.179,1.463-.364,2.976-1.229,3.94a137.17,137.17,0,0,0-9.222,11.953c-2.7,3.774-5.483,7.677-8.6,11.265-4.975,5.718-8.677,13.36-11.346,19.379-1.9,4.288-4.576,9.781-8.387,14.232-1.833,2.143-3.91,4.572-4.874,7.52-1.107,3.38-3.576,3.57-6.19,3.771-.385.03-.772.059-1.157.1A6.185,6.185,0,0,1,15.288,256.242Zm244.706-187.2c-9.558,0-49.4,12.886-52.628,17.023,4.216-2.574,8.954-3.923,13.535-5.228l.031-.009q.794-.226,1.587-.454c1.078-.312,2.168-.739,3.221-1.153a18.558,18.558,0,0,1,6.646-1.7,8.678,8.678,0,0,1,3.406.685,2.119,2.119,0,0,1-.038-1.913,2.243,2.243,0,0,1,1.87-.608c.2,0,.393.007.575.013s.365.016.517.016a1.459,1.459,0,0,0,.427-.043c5.195-1.843,10.6-3.39,16.326-5.028,1.748-.5,3.543-1.013,5.395-1.553A7.537,7.537,0,0,0,259.994,69.046ZM430.766,42.813c13.895,0,24.492.387,34.36,1.254-6.468-1.862-29.233-2.841-48.379-2.841-16.016,0-28.38.633-33.076,1.693,3.913.088,8.233.135,13.207.135,5.818,0,11.758-.064,17-.121h.029C419.435,42.873,425.151,42.813,430.766,42.813ZM416.8,27.537v.005c-3.627,0-7.277.108-10.849.322l.506.029q21.783,1.231,43.562,2.467A204.8,204.8,0,0,0,416.8,27.542ZM411.9,12.15v.005c-6.962,0-14.3.3-21.8.887,17.7.354,33.62.881,49.282,3.662,3.377.6,6.793,1.283,10.1,1.943,2.715.542,5.521,1.1,8.293,1.615.242.045.5.109.778.177a7.588,7.588,0,0,0,1.724.29,1.425,1.425,0,0,0,1.528-1.057,1.459,1.459,0,0,0-.028-1.191c-.3-.523-1.065-.695-1.8-.86a5.644,5.644,0,0,1-1.2-.358,2.97,2.97,0,0,0-.77-.215c-.11-.02-.22-.041-.328-.066A206,206,0,0,0,411.9,12.155Z" transform="translate(0 0)" fill="#ba2e66"/>
    <path id="Fill_509" data-name="Fill 509" d="M12.579,179.629c-2.168,0-2.626-1.743-3.069-3.428a7.187,7.187,0,0,0-.706-1.959,5.445,5.445,0,0,1-.581-1.48c-.287-1.017-.535-1.9-1.914-1.9a5.192,5.192,0,0,0-1.118.144,1.939,1.939,0,0,1-.422.048c-1.074,0-1.9-1.016-2.469-3.021-.223-.787-.518-1.588-.8-2.362-1.178-3.2-2.4-6.515,1.1-9.705.011-.011,1.083-1.22.773-2.121-.182-.53-.8-.844-1.839-.933a1.156,1.156,0,0,1-.8-.559,5.321,5.321,0,0,1-.587-3.9,77.832,77.832,0,0,0,1.7-9.64c.649-4.886,1.32-9.937,3.437-14.622a10.151,10.151,0,0,0,.418-1.163c.309-.986.576-1.838,1.526-1.838a3.643,3.643,0,0,1,1.523.455l.044.021a3.167,3.167,0,0,0,1.215.407.637.637,0,0,0,.656-.546,4,4,0,0,0-.363-2.373c-.074-.121-.147-.19-.218-.2-1.464-.306-2.31-.878-2.515-1.7-.254-1.021.562-2.253,1.484-3.021,2.142-1.785,3.041-4.234,3.911-6.6a16.655,16.655,0,0,1,2.765-5.393c1.33-1.521,2.568-3.16,3.765-4.744,3.121-4.13,6.347-8.4,11.52-11.04,1.482-.757,2.586-2.7,3.754-4.757a24.527,24.527,0,0,1,2.949-4.428C43.2,71.242,49.684,66.24,55.957,61.4c2.152-1.659,4.374-3.372,6.521-5.1A165.712,165.712,0,0,1,78.362,45.459c1.709-1.072,3.476-2.18,5.2-3.292,14.774-9.52,31.507-17.545,52.658-25.256,20.615-7.517,43.705-12.539,70.589-15.353A277,277,0,0,1,235.445,0a203.4,203.4,0,0,1,49.086,5.651C293.456,7.843,303.758,11,312.5,17.76a12.006,12.006,0,0,0,1.233.8c1.458.864,2.966,1.757,2.329,3.714-.607,1.861-2.477,2.112-4.226,2.112-.389,0-.776-.012-1.15-.024h-.042a2.668,2.668,0,0,0-1.055.365c-.269.129-.6.288-1.016.457.811.443,1.581.857,2.325,1.257,1.719.924,3.339,1.795,4.877,2.718.188.112.383.221.581.331,1.292.718,2.623,1.457,2.246,3.409-.3,1.616-1.522,1.822-2.7,2.021-.285.048-.579.1-.857.167a2.558,2.558,0,0,0-2.074,1.7c2.8.81,4.3,1.416,4.761,2.459s-.111,2.509-1.557,5.4a4.687,4.687,0,0,1-.821,1,3.535,3.535,0,0,0-1.342,2.392,3.357,3.357,0,0,0,1.342,2.249c.349.316.482.6.4.849-.248.719-2.242.938-3.088,1-1.054.075-2.146.113-3.246.113-6.583,0-13.045-1.338-19.1-2.709-10.21-2.312-20.7-3.794-30.842-5.228a175.41,175.41,0,0,0-24.823-1.675c-13.242,0-27.736,1.288-45.612,4.053a173.046,173.046,0,0,0-41.7,11.913c5.552-1.173,11.165-2.61,16.594-4,13.154-3.365,26.755-6.845,41.334-7.143-2.068,2.462-4.219,2.592-6.117,2.707-.422.025-.82.05-1.208.1A254.56,254.56,0,0,0,134.87,66.588a4.231,4.231,0,0,0-.672.384,2.426,2.426,0,0,1-1.165.513c-.38,0-.682-.273-.922-.833-.684-1.593-1.6-2.367-2.8-2.367A6.883,6.883,0,0,0,126.13,65.5c-.351.205-.682.4-.963.527-.356.163-.749.315-1.164.476-2.44.946-5.477,2.122-3.887,6.817a7.345,7.345,0,0,0-4.6-1.95c-1.949,0-3.609,1.116-5.215,2.2s-3.273,2.2-5.2,2.2c-.141,0-.284-.006-.425-.018a2.215,2.215,0,0,0,2.2,1.61,8.1,8.1,0,0,0,.829-.058c.275-.027.557-.055.83-.055a2.245,2.245,0,0,1,1.707.663c-1.253.728-2.529,1.442-3.763,2.132-2.842,1.59-5.771,3.228-8.472,5.071a1.533,1.533,0,0,1-.828.323c-.538,0-.807-.543-1.092-1.118l-.035-.072c-.262-.529-.588-1.187-1.255-1.187a2.372,2.372,0,0,0-1.3.552,42.329,42.329,0,0,1-7.176,3.85A44.493,44.493,0,0,0,79.425,91.1a3.212,3.212,0,0,1-1.929.579c-.3,0-.6-.028-.871-.052-.284-.025-.576-.052-.864-.052a3.013,3.013,0,0,0-1.932.628c1.728,1.234,2.49,2.2,2.4,3.047-.1.886-1.128,1.705-3.348,2.657a41.774,41.774,0,0,0-16.138,12.108,29.982,29.982,0,0,1-4.908,4.477A27.2,27.2,0,0,0,46.34,119.7a1.379,1.379,0,0,1-1.191.635,4.518,4.518,0,0,1-1.251-.26c-.219-.067-.444-.135-.662-.185a11.508,11.508,0,0,0-2.552-.332c-2.928,0-4.3,1.785-4.451,5.787-.176,4.83-.664,9.076-4.874,12.126a4.13,4.13,0,0,1-2.8,1.044c-.149,0-.306,0-.473-.014-.066,0-.132-.006-.2-.006a4.388,4.388,0,0,0-3.535,2.127,7.3,7.3,0,0,0-1.005,6.393c1.711,4.583-.144,9.6-2.451,12.762-2.6,3.58-2.736,7.328-2.866,10.952a37.949,37.949,0,0,1-.37,4.742c-.447,2.716-1.511,3.418-3.726,3.967A5.683,5.683,0,0,1,12.579,179.629ZM234.04,37.066c-19,0-39.035,2.641-61.244,8.074a288.429,288.429,0,0,1,61.728-6.259c11.53,0,23.325.552,36.06,1.689A188.8,188.8,0,0,0,234.04,37.066Zm-9.8-12.6a133.456,133.456,0,0,0-33.278,4.293c4.591-.333,9.251-.73,13.759-1.114,11.787-1,23.966-2.041,36.013-2.041h.627A130.241,130.241,0,0,0,224.238,24.463ZM236.75,13.882c15.4,0,30.838,2.551,45.77,5.018q2.77.458,5.537.91a46.284,46.284,0,0,1,9.136,2.787,3.045,3.045,0,0,1,.832.583,2.015,2.015,0,0,0,1.255.668,1.424,1.424,0,0,0,.722-.221,1.737,1.737,0,0,0,.717-1.348c-.09-1.59-1.41-1.959-2.576-2.285l-.22-.062c-1.712-.483-3.522-.857-5.272-1.218-3.746-.774-7.619-1.575-10.743-3.483-4.7-2.872-9.709-3.054-14.549-3.23a47.167,47.167,0,0,1-8.269-.791,22.016,22.016,0,0,0-4.757-.42c-.808,0-1.629.022-2.423.042h-.046c-.814.022-1.652.045-2.455.045a15.992,15.992,0,0,1-6.481-1.057,21.576,21.576,0,0,0-9.063-1.766c-1.941,0-3.9.169-5.8.333-1.874.161-3.811.328-5.74.335a38.779,38.779,0,0,0-9.3,1.563,35.592,35.592,0,0,1-8.59,1.465c-.346,0-.69-.011-1.021-.034-1.167-.078-2.327-.118-3.447-.118a40.886,40.886,0,0,0-20.938,5.568c1.744-.174,3.517-.4,5.231-.61a94.668,94.668,0,0,1,11.635-.97h.331c2.791,0,5.609-.253,8.335-.5l.178-.016c2.782-.252,5.658-.513,8.561-.513.765,0,1.515.018,2.231.055s1.486.055,2.3.055c2.642,0,5.51-.192,8.284-.377,1.983-.133,4.031-.269,5.98-.336C233.616,13.909,235.182,13.882,236.75,13.882ZM170.235,16.24v.005a1.047,1.047,0,0,0-.5.131,17.652,17.652,0,0,1-6.306,1.637c-2.763.363-5.62.738-8.04,2.738a7.157,7.157,0,0,0,3.642.976,16.078,16.078,0,0,0,4.649-.936,16.038,16.038,0,0,1,4.6-.934,6.8,6.8,0,0,1,2,.289.875.875,0,0,0,.257.038,1.294,1.294,0,0,0,.923-.469,1.871,1.871,0,0,0,.486-1.412c-.094-.972-.846-2.06-1.713-2.06Z" transform="translate(99.095 102.613)" fill="#ba2e66"/>
    <path id="Fill_511" data-name="Fill 511" d="M181.469,2.862a5.718,5.718,0,0,1-3.63,2.13c-1.5.422-4.09-.47-4.056,1.961.038,2.521,2.542,1.479,4.073,1.706.558.084,1.157-.054,1.7.073,2.408.564,3.5,1.627,1.155,3.672-.5.43-1.861,1.134-1.094,1.333,6.819,1.754.85,5.027.994,7.5.3,5.151-4.511,4.2-7.141,5.779-7.321,4.407-16.312,5.1-23.209,10.717-2.7,2.2-5.66.414-7.494-2.488-3.68,6.792-11.02,6.989-17.108,9.119C113.415,48.65,99.811,50.4,88.915,56.824c-11.053,6.521-23.13,8.4-34.448,13.092l-11.582.677a48.847,48.847,0,0,0-4.814,1.6c-8.34,3.726-16.776,7.129-25.945,8.21-1.907.223-4.409,2.057-3.265-2.776.445-1.874-4.106-5.136-6.677-7.434C.97,69.106-.609,68.112.241,66.606c2.93-5.192,3.4-11.638,9.769-15.057a359.384,359.384,0,0,1,50.719-22.6c13.913-4.9,27.984-9.165,42.088-13.39a327.228,327.228,0,0,1,34.521-8.315C148.993,5.093,160.4,1.582,172.246.122a10.9,10.9,0,0,1,9.223,2.74" transform="translate(214.211 190.68)" fill="#ba2e66"/>
    <path id="Fill_513" data-name="Fill 513" d="M43.172,7.049C28.445,7.456,14.236,4.336,0,1.4L.209,0,43.172,7.049" transform="translate(365.578 150.542)" fill="#ba2e66"/>
    <path id="Fill_515" data-name="Fill 515" d="M31.777,2.943,0,1.332c10.765-2.646,21.348-.95,31.777,1.61" transform="translate(328.8 148.501)" fill="#ba2e66"/>
  </g>
</svg>
