<svg xmlns="http://www.w3.org/2000/svg" width="378.988" height="223.317" viewBox="0 0 378.988 223.317">
  <g id="_12" data-name="12" transform="translate(0 0)">
    <path id="Fill_507" data-name="Fill 507" d="M12.1,202.745a1.685,1.685,0,0,1-1.256-.4,2.455,2.455,0,0,1-.379-1.779A4.914,4.914,0,0,0,10.4,199.4c-.4-1.7-1.782-2.194-3.12-2.676a7.738,7.738,0,0,1-1.692-.76c-6.63-4.456-5.83-11.057-5.124-16.881,1.16-9.529,5.221-18.377,9.148-26.934l.289-.629A200.249,200.249,0,0,1,33.5,112.517,213.867,213.867,0,0,1,65.142,79.749c20.868-17.517,44.965-31.8,73.67-43.65,7.936-3.279,16.236-5.955,24.263-8.542,3.253-1.049,6.612-2.131,9.9-3.239,8.921-3,18.443-6.138,28.149-8.521,17.82-4.376,32.747-7.412,46.976-9.555C268.582,3.155,292.844,0,317.5,0c3.331,0,6.656.058,9.885.172A152.475,152.475,0,0,1,368.5,7.425a20.882,20.882,0,0,1,6.438,3.16c.24.183.5.365.758.541,1.29.892,2.624,1.815,2.251,3.524-.473,2.165-2.187,3.375-4.826,3.408l.286.123c2.608,1.12,5.072,2.177,5.513,4.019.278,1.162-.271,2.545-1.677,4.228-.48.575-.242.992.034,1.476.08.139.162.283.231.438a5.193,5.193,0,0,1,.36,4.336c-.566,1.2-1.89,2.107-3.936,2.68a2.267,2.267,0,0,0,1.131.509c.784.2,1.524.39,1.232,1.559-.236.958-1.094,1.081-1.814,1.081-.26,0-.517-.018-.765-.035l-.121-.008c-9.9-.667-19.979-.734-29.726-.8l-3.062-.021c-1.56-.012-3.136-.018-4.684-.018a520.2,520.2,0,0,0-54.152,2.686c-16.955,1.758-34.492,4.332-53.612,7.868A154.986,154.986,0,0,0,207.7,53.823,556.465,556.465,0,0,1,333.906,39.174c12.953,0,26.109.467,39.105,1.387a3.859,3.859,0,0,1-3.126,1.306c-.464,0-.934-.043-1.389-.085-.416-.038-.809-.074-1.2-.08-5.9-.1-11.726-.15-17.309-.15-45.674,0-83.6,3.264-119.362,10.272C219.01,54.1,207.415,57.187,196.2,60.17c-1.718.457-3.419.909-5.12,1.359a14.641,14.641,0,0,1-3.821.575c-.205,0-.412-.006-.613-.018-2.352,2-5.264,2.751-8.08,3.478-1.1.285-2.246.58-3.332.945A264.985,264.985,0,0,0,138.7,81.537c-2.913,1.485-5.79,2.818-8.964,2.818a11.592,11.592,0,0,1-2.6-.3,7.151,7.151,0,0,0-1.531-.224c-.506,0-.823.124-.942.369-.181.374.1,1.033.829,1.96a1.147,1.147,0,0,1,.343.921c-.084.359-.5.558-.91.75-.149.07-.289.137-.413.211-1.839,1.092-3.689,2.245-5.478,3.36a117.126,117.126,0,0,1-14.114,7.919,15.737,15.737,0,0,0-4.076,2.867,17.755,17.755,0,0,1-2.776,2.146,82.578,82.578,0,0,0-12.315,9.431c-2.324,2.025-4.726,4.117-7.226,6.006a57.563,57.563,0,0,0-7.541,7.32c-1.076,1.177-2.188,2.394-3.335,3.563-.542-.6-.239-1.13.029-1.6.238-.417.463-.812.021-1.166a1.684,1.684,0,0,0-1.063-.359,1.5,1.5,0,0,0-1.361.693,10.967,10.967,0,0,1-1.77,2.427c-1.324,1.507-2.692,3.066-2.04,5.566a2.214,2.214,0,0,1-.382,1.953,2.025,2.025,0,0,1-1.534.825,1.373,1.373,0,0,1-.16-.009c-.256-.03-.5-.067-.731-.1a7.319,7.319,0,0,0-1-.109c-.319,0-.515.072-.616.227-.184.284-.069.854.374,1.85a1.012,1.012,0,0,1-.013.589,2.836,2.836,0,0,0-.048.28,7.951,7.951,0,0,0-1.075-.08c-2.846,0-3.093,2.023-3.332,3.979a5.7,5.7,0,0,1-.972,3.118,108.533,108.533,0,0,0-7.3,9.457c-2.133,2.986-4.338,6.074-6.808,8.913-3.937,4.524-6.865,10.571-8.977,15.333A46.241,46.241,0,0,1,22.264,193.7a18.32,18.32,0,0,0-3.857,5.95c-.876,2.674-2.83,2.825-4.9,2.984-.3.023-.611.047-.916.079A4.9,4.9,0,0,1,12.1,202.745ZM205.714,54.631c-7.563,0-39.085,10.2-41.64,13.469a42.418,42.418,0,0,1,10.709-4.136l.025-.007q.629-.179,1.256-.359c.853-.247,1.715-.585,2.549-.912a14.683,14.683,0,0,1,5.258-1.348,6.866,6.866,0,0,1,2.7.542,1.676,1.676,0,0,1-.03-1.514,1.775,1.775,0,0,1,1.479-.481c.157,0,.311.005.455.01s.289.012.409.012a1.155,1.155,0,0,0,.338-.034c4.11-1.458,8.388-2.682,12.917-3.978,1.383-.4,2.8-.8,4.268-1.229A5.963,5.963,0,0,0,205.714,54.631Zm135.12-20.756c10.994,0,19.379.306,27.186.992-5.118-1.473-23.13-2.248-38.279-2.248-12.672,0-22.455.5-26.17,1.34,3.1.069,6.514.107,10.45.107,4.6,0,9.3-.051,13.45-.1h.023C331.868,33.922,336.391,33.875,340.834,33.875ZM329.783,21.788v0c-2.87,0-5.758.086-8.584.255l.4.023q17.235.974,34.467,1.952a162.046,162.046,0,0,0-26.281-2.23ZM325.908,9.614v0c-5.509,0-11.313.236-17.252.7,14,.28,26.6.7,38.993,2.9,2.672.475,5.375,1.015,7.989,1.537,2.148.429,4.369.873,6.562,1.278.192.036.4.086.615.14a6,6,0,0,0,1.364.23,1.128,1.128,0,0,0,1.209-.836,1.154,1.154,0,0,0-.022-.942c-.239-.414-.843-.55-1.426-.681a4.466,4.466,0,0,1-.947-.284,2.35,2.35,0,0,0-.609-.17c-.087-.016-.174-.032-.26-.052A163,163,0,0,0,325.91,9.618Z" transform="translate(0 0)" fill="#6c7a87"/>
    <path id="Fill_509" data-name="Fill 509" d="M9.953,142.127c-1.715,0-2.078-1.379-2.428-2.712a5.687,5.687,0,0,0-.559-1.55,4.308,4.308,0,0,1-.459-1.171c-.227-.8-.424-1.5-1.515-1.5a4.107,4.107,0,0,0-.884.114,1.535,1.535,0,0,1-.334.038c-.85,0-1.507-.8-1.954-2.39-.176-.622-.409-1.256-.635-1.869-.932-2.534-1.9-5.155.868-7.679.009-.009.857-.965.611-1.678-.144-.419-.634-.667-1.455-.738a.915.915,0,0,1-.634-.442,4.21,4.21,0,0,1-.465-3.088,61.583,61.583,0,0,0,1.342-7.627c.513-3.866,1.044-7.863,2.719-11.569a8.032,8.032,0,0,0,.331-.92c.245-.78.456-1.454,1.207-1.454a2.883,2.883,0,0,1,1.205.36l.035.017a2.506,2.506,0,0,0,.961.322.5.5,0,0,0,.519-.432,3.165,3.165,0,0,0-.288-1.878c-.058-.1-.116-.15-.172-.162-1.158-.242-1.828-.695-1.99-1.344a2.723,2.723,0,0,1,1.175-2.39c1.694-1.412,2.406-3.35,3.095-5.223a13.178,13.178,0,0,1,2.187-4.267c1.052-1.2,2.032-2.5,2.979-3.754,2.469-3.268,5.022-6.645,9.115-8.735,1.173-.6,2.046-2.136,2.97-3.764a19.406,19.406,0,0,1,2.334-3.5c4.342-4.767,9.475-8.724,14.439-12.551,1.7-1.313,3.461-2.668,5.16-4.035A131.113,131.113,0,0,1,62,35.968c1.352-.848,2.75-1.725,4.116-2.6,11.69-7.532,24.929-13.882,41.665-19.983,16.311-5.948,34.581-9.921,55.852-12.148A219.167,219.167,0,0,1,186.29,0a160.938,160.938,0,0,1,38.838,4.472c7.062,1.734,15.213,4.228,22.13,9.58a9.5,9.5,0,0,0,.976.631c1.154.684,2.347,1.39,1.843,2.939-.48,1.473-1.96,1.671-3.343,1.671-.308,0-.614-.01-.91-.019h-.033a2.111,2.111,0,0,0-.835.288c-.213.1-.476.228-.8.362.641.351,1.251.678,1.84.995,1.36.731,2.642,1.42,3.859,2.151.148.089.3.175.46.262,1.022.568,2.076,1.153,1.777,2.7-.24,1.278-1.2,1.441-2.137,1.6-.225.038-.458.077-.678.132a2.024,2.024,0,0,0-1.641,1.343c2.214.641,3.406,1.12,3.767,1.946s-.088,1.985-1.232,4.27a3.709,3.709,0,0,1-.649.795A2.8,2.8,0,0,0,248.456,38a2.656,2.656,0,0,0,1.062,1.78c.276.25.382.476.314.672-.2.569-1.774.742-2.443.79-.834.059-1.7.089-2.568.089a68.779,68.779,0,0,1-15.113-2.143c-8.079-1.829-16.378-3-24.4-4.137a138.789,138.789,0,0,0-19.64-1.325,234.786,234.786,0,0,0-36.09,3.207,136.919,136.919,0,0,0-33,9.426c4.393-.928,8.834-2.065,13.129-3.164,10.408-2.663,21.169-5.416,32.7-5.652a5.909,5.909,0,0,1-4.84,2.142c-.334.02-.649.039-.955.077a201.415,201.415,0,0,0-49.9,12.92,3.348,3.348,0,0,0-.532.3,1.919,1.919,0,0,1-.922.406c-.3,0-.539-.216-.73-.659-.541-1.26-1.265-1.873-2.213-1.873a5.446,5.446,0,0,0-2.519.96c-.278.162-.54.316-.762.417-.282.129-.592.249-.921.377-1.931.748-4.333,1.679-3.076,5.394A5.811,5.811,0,0,0,91.4,56.468a7.653,7.653,0,0,0-4.126,1.737,7.678,7.678,0,0,1-4.116,1.738c-.112,0-.225,0-.336-.014a1.752,1.752,0,0,0,1.74,1.274,6.41,6.41,0,0,0,.656-.046c.217-.022.441-.044.657-.044a1.776,1.776,0,0,1,1.351.525c-.992.576-2,1.141-2.978,1.687-2.249,1.258-4.566,2.554-6.7,4.012a1.213,1.213,0,0,1-.655.255c-.426,0-.639-.43-.864-.885L76,66.651c-.207-.418-.465-.939-.993-.939a1.877,1.877,0,0,0-1.029.436A33.492,33.492,0,0,1,68.3,69.194a35.2,35.2,0,0,0-5.454,2.886,2.542,2.542,0,0,1-1.526.458c-.237,0-.477-.022-.689-.041s-.456-.041-.684-.041a2.384,2.384,0,0,0-1.528.5c1.367.976,1.97,1.744,1.9,2.411-.076.7-.892,1.349-2.649,2.1A33.053,33.053,0,0,0,44.9,87.047a23.722,23.722,0,0,1-3.883,3.543,21.519,21.519,0,0,0-4.347,4.124,1.091,1.091,0,0,1-.942.5,3.575,3.575,0,0,1-.99-.205c-.174-.053-.351-.107-.524-.146A9.105,9.105,0,0,0,32.19,94.6c-2.317,0-3.4,1.412-3.522,4.579-.139,3.822-.525,7.181-3.857,9.595a3.268,3.268,0,0,1-2.218.826c-.118,0-.242,0-.374-.011-.052,0-.1,0-.156,0a3.472,3.472,0,0,0-2.8,1.683,5.777,5.777,0,0,0-.8,5.058c1.353,3.626-.114,7.593-1.939,10.1-2.058,2.833-2.165,5.8-2.267,8.666a30.026,30.026,0,0,1-.293,3.752c-.354,2.149-1.2,2.7-2.948,3.138A4.5,4.5,0,0,1,9.953,142.127Zm175.226-112.8c-15.035,0-30.885,2.089-48.458,6.388a228.212,228.212,0,0,1,48.841-4.952c9.123,0,18.455.437,28.531,1.336A149.381,149.381,0,0,0,185.179,29.328Zm-7.756-9.972a105.594,105.594,0,0,0-26.331,3.4c3.632-.264,7.32-.578,10.886-.882,9.326-.794,18.963-1.615,28.495-1.615h.5A103.051,103.051,0,0,0,177.423,19.356Zm9.9-8.372c12.182,0,24.4,2.019,36.215,3.971q2.192.362,4.381.72a36.622,36.622,0,0,1,7.228,2.2,2.41,2.41,0,0,1,.659.461,1.594,1.594,0,0,0,.993.528,1.127,1.127,0,0,0,.571-.175,1.374,1.374,0,0,0,.567-1.066c-.071-1.258-1.116-1.55-2.038-1.808l-.174-.049c-1.355-.382-2.787-.678-4.172-.964-2.964-.613-6.028-1.246-8.5-2.756-3.721-2.272-7.682-2.416-11.512-2.556A37.32,37.32,0,0,1,205,8.87a17.419,17.419,0,0,0-3.764-.333c-.639,0-1.289.017-1.917.034h-.036c-.644.018-1.307.036-1.943.036a12.654,12.654,0,0,1-5.128-.836,17.071,17.071,0,0,0-7.171-1.4c-1.536,0-3.088.134-4.59.263-1.482.128-3.015.26-4.542.265A30.683,30.683,0,0,0,168.55,8.14a28.161,28.161,0,0,1-6.8,1.16c-.274,0-.546-.009-.808-.027-.924-.062-1.841-.093-2.727-.093a32.35,32.35,0,0,0-16.566,4.406c1.38-.138,2.783-.313,4.139-.483A74.9,74.9,0,0,1,155,12.335h.262c2.208,0,4.438-.2,6.595-.393l.141-.013c2.2-.2,4.477-.406,6.774-.406.6,0,1.2.015,1.765.043s1.176.043,1.82.043c2.09,0,4.36-.152,6.555-.3,1.569-.1,3.189-.213,4.732-.265C184.843,11.005,186.082,10.984,187.323,10.984Zm-52.628,1.865v0a.828.828,0,0,0-.4.1,13.967,13.967,0,0,1-4.99,1.3c-2.186.287-4.447.584-6.361,2.166a5.663,5.663,0,0,0,2.882.773,12.721,12.721,0,0,0,3.679-.74,12.69,12.69,0,0,1,3.64-.739,5.381,5.381,0,0,1,1.584.229.692.692,0,0,0,.2.03,1.023,1.023,0,0,0,.73-.371,1.48,1.48,0,0,0,.384-1.117c-.074-.769-.67-1.63-1.355-1.63Z" transform="translate(78.407 81.19)" fill="#6c7a87"/>
    <path id="Fill_511" data-name="Fill 511" d="M143.583,2.265a4.524,4.524,0,0,1-2.872,1.686c-1.183.334-3.236-.372-3.209,1.552.03,1.995,2.011,1.17,3.223,1.35.441.066.916-.043,1.347.058,1.905.446,2.771,1.287.914,2.905-.393.34-1.472.9-.866,1.054,5.4,1.388.673,3.978.787,5.934.241,4.075-3.57,3.322-5.65,4.573-5.792,3.487-12.907,4.037-18.364,8.479-2.138,1.74-4.479.327-5.93-1.968-2.912,5.374-8.719,5.53-13.536,7.215-9.689,3.389-20.453,4.771-29.074,9.858C61.606,50.12,52.051,51.608,43.1,55.32l-9.164.535a38.65,38.65,0,0,0-3.809,1.263c-6.6,2.948-13.274,5.64-20.529,6.5-1.509.177-3.489,1.628-2.583-2.2.352-1.482-3.249-4.064-5.283-5.882C.767,54.678-.482,53.892.191,52.7c2.319-4.108,2.687-9.208,7.729-11.914A284.354,284.354,0,0,1,48.05,22.907c11.008-3.874,22.142-7.252,33.3-10.595a258.912,258.912,0,0,1,27.314-6.579c9.221-1.7,18.246-4.482,27.62-5.637a8.626,8.626,0,0,1,7.3,2.168" transform="translate(169.489 150.871)" fill="#6c7a87"/>
    <path id="Fill_513" data-name="Fill 513" d="M34.159,5.578C22.507,5.9,11.264,3.431,0,1.107L.165,0,34.159,5.578" transform="translate(289.255 119.112)" fill="#6c7a87"/>
    <path id="Fill_515" data-name="Fill 515" d="M25.143,2.328,0,1.054C8.517-1.04,16.891.3,25.143,2.328" transform="translate(260.155 117.498)" fill="#6c7a87"/>
  </g>
</svg>
