<svg xmlns="http://www.w3.org/2000/svg" width="202.007" height="182.219" viewBox="0 0 202.007 182.219">
  <g id="_3" data-name="3" transform="translate(-0.003)" style="mix-blend-mode: soft-light;isolation: isolate">
    <path id="Fill_534" data-name="Fill 534" d="M26.344,52.746A31.145,31.145,0,0,1,15.113,50.86a15.748,15.748,0,0,1-7.448-6.591c-.441-.675-.9-1.359-1.342-2.021C3.278,37.706.133,33.012.012,27.14c-.2-9.489,2.127-17,7.11-22.953C9.513,1.331,11.949,0,14.788,0a9.962,9.962,0,0,1,1.528.122,6.109,6.109,0,0,1,4.33,3.367,11.125,11.125,0,0,1,1.288,5.1,3.2,3.2,0,0,1-1.268,2.266c-.2.2-.386.38-.548.575-2.28,2.718-3.217,6-4.124,9.178-.3,1.067-.619,2.17-.98,3.236a.9.9,0,0,0,.006.751,1.4,1.4,0,0,0,.967.508,17.661,17.661,0,0,0,3.747.452,8.8,8.8,0,0,0,7.484-3.744c.271-.363.55-.728.819-1.081a25.629,25.629,0,0,0,3.471-5.447,4.492,4.492,0,0,0,.084-3.464c-.055-.159-.116-.318-.179-.486a3.305,3.305,0,0,1-.31-2.512,2.326,2.326,0,0,1,1.522-1.075.5.5,0,0,0,.347-.278A.942.942,0,0,0,32.8,6.7a3.256,3.256,0,0,1-.4-2.609A3.566,3.566,0,0,1,34.376,2a5.84,5.84,0,0,1,2.576-.562,9.121,9.121,0,0,1,5.483,2.013,7.112,7.112,0,0,1,2.878,4.788l.009.1a2.818,2.818,0,0,0,.319,1.308c2.17,3.161,2.372,6.7,2.535,9.542.051.89.1,1.731.205,2.446.218,10.468-3.269,17.839-6.708,23.669C39,49.841,34.568,52.389,28.848,52.68,27.988,52.724,27.146,52.746,26.344,52.746Zm5.547-3.463a21.674,21.674,0,0,0-5.247.87c-.662.166-1.345.338-2.02.482a11.948,11.948,0,0,0,2.728.326,11.468,11.468,0,0,0,5.77-1.6A10.3,10.3,0,0,0,31.891,49.284Z" transform="translate(21.175 68.529)" fill="#fff"/>
    <path id="Fill_536" data-name="Fill 536" d="M22.431,51.765a15.082,15.082,0,0,1-10.075-3.24,9.418,9.418,0,0,1-1.725-2.034c-.123-.177-.245-.353-.368-.524-.668-.925-1.37-1.857-2.049-2.757C4.754,38.619,1.179,33.875.376,27.826A36.334,36.334,0,0,1,4.848,4.138C6.5,1.315,8.414,0,10.875,0a7.221,7.221,0,0,1,.8.046,4.6,4.6,0,0,1,3.535,1.8,3.267,3.267,0,0,1-1.38.622A2.034,2.034,0,0,0,12.274,3.5a.978.978,0,0,0,.611.214,2.163,2.163,0,0,0,.7-.159l.013,0A2.039,2.039,0,0,1,14.25,3.4a.813.813,0,0,1,.171.018,5.247,5.247,0,0,0,.609.078c.541.049,1.1.1,1.251.442.125.282-.047.726-.526,1.358a1.05,1.05,0,0,1-.08.091c-.069.072-.139.145-.126.219.009.052.058.1.15.144A2.255,2.255,0,0,1,16.98,6.96a2.843,2.843,0,0,1-.542,2.091,5.868,5.868,0,0,0-.489,1.068c-.117.4-.253.8-.384,1.193a11.036,11.036,0,0,0-.741,3.259c-.053,2.454-.066,4.6-.041,6.561.029,2.2.288,2.844,1.944,2.844.3,0,.676-.022,1.168-.068a8.646,8.646,0,0,0,5.611-2.61,7.9,7.9,0,0,0,2.086-5.731A43.111,43.111,0,0,1,27.1,4.591,4.491,4.491,0,0,1,30.76.9a5.111,5.111,0,0,1,.863-.07c2.222,0,5.157,1.326,5.985,3.3a45.964,45.964,0,0,1,3.43,11.261,54.583,54.583,0,0,1-1.309,22.884,25.734,25.734,0,0,1-3.766,8.235c-2.113,2.887-5.4,4.582-9.759,5.038A36.475,36.475,0,0,1,22.431,51.765ZM26,48.542a10.786,10.786,0,0,0-4.612.993,23.213,23.213,0,0,0,2.857.235,7.038,7.038,0,0,0,3.96-1.05A14.345,14.345,0,0,0,26,48.542Z" transform="translate(98.04 42.514)" fill="#fff"/>
    <path id="Fill_538" data-name="Fill 538" d="M24.737,49.179a23.466,23.466,0,0,1-10.29-2.391C11.386,45.31,9.4,42.669,7.655,40.338,3.908,35.347,2.146,29.5.789,24.414-.8,18.475,0,12.415,3.237,5.888c.156-.314.306-.633.451-.94C4.5,3.222,5.27,1.593,7.051.556A3.945,3.945,0,0,1,9.086,0a7.863,7.863,0,0,1,2.633.588c.364.132.941.571.912.8a9.376,9.376,0,0,0,.816,4.385,8.363,8.363,0,0,1,.7,4.984c-.278,1.1-.453,2.246-.622,3.353q-.046.3-.093.6a5.951,5.951,0,0,0,.988,4.65,5.93,5.93,0,0,0,4.218,2.154,13.047,13.047,0,0,0,1.4.078,9.262,9.262,0,0,0,7.773-3.812,22.185,22.185,0,0,0,3.928-8.34,4.3,4.3,0,0,1,4.335-3.583,5.773,5.773,0,0,1,.85.065c4.28.641,5.37,1.814,5.829,6.277.005.055.009.113.013.171a1.144,1.144,0,0,0,.159.643c1.661,1.988,1.73,4.268,1.81,6.908.029.953.059,1.937.167,2.961A32.185,32.185,0,0,1,38.25,43.56a13.3,13.3,0,0,1-7.911,4.983A25.788,25.788,0,0,1,24.737,49.179Zm-.155-3.045a21.156,21.156,0,0,0-3.893.326,8.559,8.559,0,0,0,3.78.782,7.736,7.736,0,0,0,4.011-.951l-.519-.029C26.8,46.2,25.712,46.134,24.582,46.134Z" transform="translate(75.29 111.671)" fill="#fff"/>
    <path id="Fill_540" data-name="Fill 540" d="M18.85,48.959A13.786,13.786,0,0,1,8.155,43.906c-1.631-1.988-3.547-4.692-3.9-7.982a3.453,3.453,0,0,0-.621-1.378l-.074-.117A22.123,22.123,0,0,1,0,22.685,28.286,28.286,0,0,1,2.8,10.794C4.1,7.943,6.017,6.435,8.34,6.435a7.93,7.93,0,0,1,4.643,1.779l.1.071c.413.3.928.683.835,1.257-.079.481-.4.521-.721.521l-.158,0h-.016l-.132,0a1.19,1.19,0,0,0-.381.048c-.084.029-.175.053-.264.077-.4.108-.82.22-.755.754.057.483.4.523.751.523h.235a1.824,1.824,0,0,1,.21.01l.09.009c.817.083,1.662.17,1.977,1.135.227.7-.21.948-.673,1.214a2.2,2.2,0,0,0-.7.538,2.241,2.241,0,0,1,1.516,1.028,2.354,2.354,0,0,1-.386,1.854,3.42,3.42,0,0,0-.461,1.383,2.141,2.141,0,0,1-.177.721c-.181.494-.368,1.005.138,1.5a1.926,1.926,0,0,0,1.384.561,3.255,3.255,0,0,0,1.2-.26c3.761-1.509,6.143-4.5,7.078-8.889.314-1.477.737-2.945,1.146-4.365s.826-2.866,1.138-4.328A4.584,4.584,0,0,1,30.62,0a5.564,5.564,0,0,1,1.226.138c3.344.755,5.17,2.645,5.582,5.777.17,1.291.407,2.589.636,3.843a38.45,38.45,0,0,1,.885,8.06c-.289,10.042-3.208,18.449-8.924,25.7A14.159,14.159,0,0,1,18.85,48.959ZM18.2,45.95a4.209,4.209,0,0,0-1.856.38l.535.139a7.9,7.9,0,0,0,1.965.35,2.771,2.771,0,0,0,1.808-.632c-.263-.026-.531-.061-.789-.094A13.255,13.255,0,0,0,18.2,45.95Z" transform="translate(163.051 12.068)" fill="#fff"/>
    <path id="Fill_542" data-name="Fill 542" d="M17.95,41.23a7.206,7.206,0,0,1-2.215-.482,8.666,8.666,0,0,0-2.073-.494.937.937,0,0,1-.884-1.012.6.6,0,0,1,.367-.4h.01a3.567,3.567,0,0,0,.549.053.654.654,0,0,0,.577-.209c.123-.179.1-.476-.064-.908a3.11,3.11,0,0,1-.116-.426c-.091-.407-.184-.828-.68-.968a1.03,1.03,0,0,0-.272-.044c-.371,0-.4.334-.419.657s-.048.658-.415.658l-.058,0a.345.345,0,0,1-.2.1c-.176,0-.182-.37-.187-.728s-.012-.727-.181-.727c-.142,0-.386.257-.745.786a1.2,1.2,0,0,0-.1-.071.446.446,0,0,1-.187-.17A10.5,10.5,0,0,0,8.327,33.7,13.318,13.318,0,0,1,6.3,31.213c-.4-.691-.846-1.372-1.277-2.029a22.757,22.757,0,0,1-2.259-4.019A36.545,36.545,0,0,1,.613,4.644C1.184,1.606,2.881,0,5.519,0A7.669,7.669,0,0,1,6.973.148a3.263,3.263,0,0,1,2.49,1.774c.314.674.664,1.351,1,2.005,1.515,2.936,3.081,5.972,1.976,9.707-.478,1.611.665,3.246,1.389,4.077a2.047,2.047,0,0,0,1.525.844,2,2,0,0,0,.9-.241l.187-.1a14.015,14.015,0,0,0,5.237-3.786c.608-.8,1.3-1.564,1.963-2.3.446-.493.906-1,1.339-1.519A10.61,10.61,0,0,0,27.05,4.425C27.241,1.965,28.481.5,30.368.5A5.128,5.128,0,0,1,32.458,1a5.442,5.442,0,0,1,2.97,2.619c.266.621.542,1.246.81,1.851a40.478,40.478,0,0,1,2.892,8.053,39.813,39.813,0,0,1,.76,10.335,7.42,7.42,0,0,1-.459,1.946,6.108,6.108,0,0,0-.455,2.469.606.606,0,0,1-.186.38,1.589,1.589,0,0,1-.853.548,1.768,1.768,0,0,0-1.455,1.068,3.162,3.162,0,0,1-.586.747,1.22,1.22,0,0,0,.62.2,1.461,1.461,0,0,0,.865-.405l.071-.054a1.787,1.787,0,0,1,1.132-.46l.082,0a10.034,10.034,0,0,0-3.447,4.739c-.4,1.095-1.887,1.8-3.083,2.368-.158.075-.31.147-.452.217a33.2,33.2,0,0,1-13.64,3.606Zm3.41-5.29h0a7.1,7.1,0,0,1-.084.911c-.088.659-.171,1.281.1,1.6a.684.684,0,0,0,.548.205l.073,0c.111-.006.228-.01.349-.014,1.149-.042,2.718-.1,3.57-1.586a2.09,2.09,0,0,0-.628-.09,5.513,5.513,0,0,0-1.167.171l-.029.006A5.2,5.2,0,0,1,23,37.3C22.235,37.3,21.728,36.882,21.36,35.94Zm7.754-8.7a1.513,1.513,0,0,0-.173.01.5.5,0,0,0-.39.208,1.316,1.316,0,0,0,.088,1.013.964.964,0,0,0-.16.94.8.8,0,0,0,.679.42c.065.006.125.01.179.01a.465.465,0,0,0,.392-.129c.1-.135.035-.352-.035-.583a1.368,1.368,0,0,1-.087-.456c.02-.252.078-.365.188-.365a.606.606,0,0,1,.233.083,1.035,1.035,0,0,0,.263.1.963.963,0,0,0,.175.018.353.353,0,0,0,.379-.232.491.491,0,0,0-.189-.51A3,3,0,0,0,29.114,27.239Z" transform="translate(0.003 140.989)" fill="#fff"/>
    <path id="Fill_544" data-name="Fill 544" d="M14.473,44.782a.415.415,0,0,1-.356-.143c-.2-.259-.047-.879.154-1.6-.576,1.122-1.071,1.622-1.6,1.622a1.792,1.792,0,0,1-1.235-.778,1.84,1.84,0,0,0-1.256-.481c-.171-.021-.347-.043-.513-.08-1.122-.252-1.273-.493-1.242-1.978.007-.317-.151-.366-.334-.423a1.452,1.452,0,0,1-.171-.061c-2.468-1.131-3.73-3.224-3.749-6.223,0-.2.009-.406.02-.629a3.077,3.077,0,0,0-.437-2.268,1.938,1.938,0,0,0-1.475-.492c-.078,0-.16,0-.243.007H2c-.3,0-.391-.207-.488-.426-.013-.03-.026-.059-.04-.089A14.668,14.668,0,0,1,.063,23.033a18.426,18.426,0,0,1,2.516-7.391,6.085,6.085,0,0,1,5.211-2.756,5.5,5.5,0,0,1,1.826.3,3.848,3.848,0,0,1,2.031,1.837.634.634,0,0,1,.009.591c-.208.37-.832.523-1.319.585a.474.474,0,0,0-.367.19c-.126.2-.026.508.062.78l.012.038c.154.473.431.714.824.714a1.45,1.45,0,0,0,.5-.1,3.462,3.462,0,0,1,1.113-.275.583.583,0,0,1,.459.172c.212.234.261.711.169,1.644-.1,1.019.945,1.572,1.956,2.106A10.178,10.178,0,0,1,16,22a.657.657,0,0,0,.366.13c.519,0,.819-.857.981-1.318a1.626,1.626,0,0,1,.757-.96c3.267-1.673,3.779-4.829,4.273-7.881q.04-.248.081-.494c.112-.68.182-1.392.251-2.082a25.25,25.25,0,0,1,.332-2.511c.2-.962.469-1.972.733-2.949.137-.507.277-1.027.406-1.536C24.719.286,26.31,0,27.795,0c.253,0,.532.009.878.029A13.5,13.5,0,0,1,31.7.685c.2.061.409.122.613.181.289.082.725.5.7.72a4.018,4.018,0,0,0,.634,2.278,3.408,3.408,0,0,1,.446,3.095c-.23.535.5,1.6.983,2.3l.007.01c.455.658.683.989.6,1.232s-.518.406-1.342.678c1.041.441,2.029,1.011,2.2,2.163.076.5-.237.566-.6.638a1.269,1.269,0,0,0-.769.35,1.852,1.852,0,0,1,1.539.634,2.655,2.655,0,0,1,.088,2.327,10.057,10.057,0,0,0-.146,3.818,13.244,13.244,0,0,1,.058,2.775c-.073.607-.176,1.228-.276,1.829-.138.831-.281,1.689-.349,2.533-.031.378-.117.553-.271.553s-.392-.207-.633-.427L35.1,28.29a1.559,1.559,0,0,0-.867-.51.441.441,0,0,0-.062,0,.842.842,0,0,0-.275.7.712.712,0,0,0,.421.488,2.915,2.915,0,0,0,.538.183c.465.126.947.257.891.8s-.279,2.317-.966,2.619c-1.511.659-1.3,2.117-1.18,2.9.01.064.018.124.026.18a1.551,1.551,0,0,1-.137,1.173.538.538,0,0,1-.431.166,3.3,3.3,0,0,1-.812-.162,2.931,2.931,0,0,0-.789-.124c-.784,0-1.258.449-1.45,1.373-.184.889-.827,1.174-1.509,1.476a2.941,2.941,0,0,0-1.31.893,9.775,9.775,0,0,1-.64.775,3.472,3.472,0,0,0-1.2,2.624c-1.351-.163-1.451-.977-1.558-1.84a2.918,2.918,0,0,0-.437-1.438c-.275,3.416-2.636,3.65-4.919,3.876-.212.021-.423.042-.633.065a3.054,3.054,0,0,1-.337.017c-.234,0-.473-.021-.705-.041s-.467-.04-.689-.04a2.06,2.06,0,0,0-.764.121A2.467,2.467,0,0,1,14.473,44.782Zm1.033-3.589c-.125,0-.428.238-.631.546a.834.834,0,0,0-.156.769,1.682,1.682,0,0,0,1.318.811.4.4,0,0,0,.265-.077,4.78,4.78,0,0,1,2.853-.923,5.949,5.949,0,0,0,2.545-.655,2.3,2.3,0,0,0-1.553-.47c-.435-.022-.81-.041-1-.278a1.538,1.538,0,0,0-1.162-.717,2.316,2.316,0,0,0-1.186.5,2.321,2.321,0,0,1-1.175.5.979.979,0,0,1-.11-.006Zm1.489-8.119c-.805,0-1.675.092-1.8,1.189a.922.922,0,0,0,.138.734,1.168,1.168,0,0,0,.878.224,1.8,1.8,0,0,1,.722.1,1.084,1.084,0,0,0,.478.107,2.382,2.382,0,0,0,.709-.144l.02-.006a2.193,2.193,0,0,1,.646-.139.807.807,0,0,1,.27.044,1.666,1.666,0,0,0,.535.1.911.911,0,0,0,.856-.585c.28-.569-.044-1.016-.356-1.448a4.122,4.122,0,0,1-.279-.419.489.489,0,0,0-.437-.3,1.485,1.485,0,0,0-.663.259c-.061.036-.121.07-.177.1a2.121,2.121,0,0,0-.265.179.955.955,0,0,1-.548.256.816.816,0,0,1-.528-.251Zm-2.669-7.8v0a1.684,1.684,0,0,0-1.179.443,1.191,1.191,0,0,0-.4.838,1.115,1.115,0,0,0,.34.8,1.249,1.249,0,0,0,.869.227,8.285,8.285,0,0,0,2.823-.638.444.444,0,0,0,.067.005,1.326,1.326,0,0,0,.759-.41,6.209,6.209,0,0,1-.826.4c-.19-.035-.341-.193-.512-.526a2.213,2.213,0,0,0-1.942-1.146Zm4.039.539c-.319.328-.56.56-.759.73A1.688,1.688,0,0,0,18.365,25.808Z" transform="translate(141.846 82.371)" fill="#fff"/>
    <path id="Fill_546" data-name="Fill 546" d="M19.983,38.48a9.331,9.331,0,0,1-1.082-.064,4.634,4.634,0,0,1-2.066-.9,8.624,8.624,0,0,0-.9-.539c-.827-.41-1.674-.814-2.493-1.2a56.3,56.3,0,0,1-7.43-4.01c-1.635-1.107-3.475-3.781-4.69-6.812C-.015,21.6-.358,18.508.385,16.46a7.4,7.4,0,0,1,5.761-5.25,3.757,3.757,0,0,1,.754-.086c1.165,0,1.731.773,1.834,2.506a3.817,3.817,0,0,0,1.6-2.376,31.9,31.9,0,0,1,2.55-6.711A8.433,8.433,0,0,1,19,.112,3.924,3.924,0,0,1,19.9,0a2.185,2.185,0,0,1,1.818.828,2.371,2.371,0,0,1,0,2.764,13.511,13.511,0,0,0-.882,2.053c-.141.382-.286.773-.457,1.2A5.454,5.454,0,0,0,23.154,5.3c.171-.151.333-.294.5-.433a3.011,3.011,0,0,1,1.818-.809c.9,0,1.548.735,1.862,2.125l.032.143c.2.91.313,1.412,1.594,1.674.994.2,1.408,1.309,1.809,2.38.137.366.267.712.418,1.023a24.113,24.113,0,0,1,2.332,12.1,15.752,15.752,0,0,1-2.251,7.4,18.457,18.457,0,0,1-5.45,5.543A10.133,10.133,0,0,1,19.983,38.48Zm7.107-6.057a6.812,6.812,0,0,0-3.655,3.1,5.946,5.946,0,0,1,1.253-.677A3.4,3.4,0,0,0,27.09,32.423Z" transform="translate(56.91 21.736)" fill="#fff"/>
    <path id="Fill_548" data-name="Fill 548" d="M8.434,10.027c1.314-2.98,1.91-6.056,4.229-8.228a5.071,5.071,0,0,1,1.085-.97c1-.483,2.268-1.267,3.133-.521.75.647.626,2.014.245,3.126-.184.534-.867,1.267-.084,1.662.663.332,1.041-.526,1.464-.967.244-.255.426-.572.682-.81.477-.446.708-1.411,1.607-1.054a2.091,2.091,0,0,1,1.456,1.681c.1.817.091,1.578,1.362,1.024.647-.281,1.1.558,1.451,1.033,3.875,5.239,4.677,10.66-.359,16-1.54,1.632-3.123,3.224-4.683,4.837a2.576,2.576,0,0,1-2.94.505c-1.174-.417.092-1.369-.432-2.132-1.194,1.92-2.344,1.665-3.872.28-.947-.858-2.082-1.93-3.865-1.212-.656.264-1.905-.465-2.671-1.029C2.4,20.425.092,16.686,0,11.82A4.394,4.394,0,0,1,2.55,7.309a3.24,3.24,0,0,1,1.158-.293c.895,2.013,3.5,1.209,4.725,3.011" transform="translate(117.478 0)" fill="#fff"/>
  </g>
</svg>
