<?xml version="1.0" standalone="no"?>
<!DOCTYPE svg PUBLIC "-//W3C//DTD SVG 20010904//EN"
 "http://www.w3.org/TR/2001/REC-SVG-20010904/DTD/svg10.dtd">
<svg version="1.0" xmlns="http://www.w3.org/2000/svg"
 width="239.000000pt" height="239.000000pt" viewBox="0 0 239.000000 239.000000"
 preserveAspectRatio="xMidYMid meet">
<metadata>
Created by potrace 1.11, written by Peter Selinger 2001-2013
</metadata>
<g transform="translate(0.000000,239.000000) scale(0.100000,-0.100000)"
fill="#000000" stroke="none">
<path d="M1260 2374 c-91 -18 -98 -20 -160 -42 -277 -97 -504 -333 -593 -617
-14 -44 -27 -100 -31 -124 -6 -46 -20 -71 -40 -71 -24 0 -153 -94 -209 -152
-73 -77 -110 -131 -153 -223 -115 -248 -91 -547 62 -775 150 -224 376 -347
652 -355 153 -4 290 31 424 110 125 73 249 203 303 316 16 32 23 37 64 43 151
20 365 122 490 233 136 122 247 308 292 488 24 96 34 284 19 353 -5 20 -11 53
-14 72 -8 56 -42 152 -76 221 -134 267 -379 457 -670 519 -81 18 -284 20 -360
4z"/>
</g>
</svg>
